Coordinates
version=1
nRows=32
nColumns=22
inDegrees=yes

Units are S.I. units (second, meters, Newtons, ...)
If the header above contains a line with 'inDegrees', this indicates whether rotational values are in degrees (yes) or radians (no).

endheader
time	pelvis_tilt	pelvis_list	pelvis_rotation	pelvis_tx	pelvis_ty	pelvis_tz	hip_flexion_r	hip_adduction_r	hip_rotation_r	knee_angle_r	ankle_angle_r	subtalar_angle_r	hip_flexion_l	hip_adduction_l	hip_rotation_l	knee_angle_l	ankle_angle_l	subtalar_angle_l	lumbar_extension	lumbar_bending	lumbar_rotation
      3.76000000	     -8.83353545	      1.89403584	    -31.90572123	      1.35101957	      0.88760775	      1.17722045	     12.01980482	      0.10908235	     -1.12752866	     -9.02180294	      3.47189071	      1.33608584	     14.80604008	     -4.49033321	      3.90930387	    -22.72457975	     15.17108649	     12.71685447	      1.63295509	      2.17592559	     11.29553067
      3.77000000	     -9.23098368	      1.86703903	    -31.86132389	      1.35320693	      0.88747398	      1.17853264	     11.57432563	      0.35868204	     -1.05923919	     -7.91413306	      3.21916815	      1.39128238	     15.09706173	     -4.71337661	      3.80179935	    -22.23999258	     15.33655753	     11.81893797	      1.76706523	      2.34902903	     11.09551616
      3.78000000	     -9.59847513	      1.85177899	    -31.93279373	      1.35520319	      0.88724537	      1.17996548	     11.18265696	      0.60332202	     -0.85737515	     -6.91799080	      3.04996997	      1.43626055	     15.31889864	     -4.95532397	      3.55340080	    -21.68192445	     15.30854625	     10.99949378	      1.87383528	      2.47152917	     10.97490204
      3.79000000	     -9.90077400	      1.90867877	    -32.13699526	      1.35705519	      0.88685856	      1.18154350	     10.86825873	      0.76834647	     -0.49759370	     -6.07862837	      2.99295252	      1.44810908	     15.43728541	     -5.13854249	      3.16847841	    -21.04013453	     15.03363804	     10.20774772	      1.96369811	      2.46747674	     10.96616812
      3.80000000	    -10.13711494	      1.98736334	    -32.43623254	      1.35881754	      0.88625840	      1.18321971	     10.60369147	      0.89281943	     -0.05350213	     -5.41192306	      3.10414967	      1.40651062	     15.44292788	     -5.29629146	      2.69698632	    -20.38107243	     14.59261514	      9.48337088	      2.01064551	      2.39108197	     11.04742073
      3.81000000	    -10.32746081	      2.06007854	    -32.78935696	      1.36050425	      0.88536742	      1.18491018	     10.38656044	      1.00767084	      0.41681451	     -4.90771954	      3.36683688	      1.28800903	     15.36007011	     -5.44672139	      2.20724108	    -19.76175413	     14.10031527	      8.77320548	      2.01882809	      2.28663958	     11.18301866
      3.82000000	    -10.48551484	      2.10387739	    -33.15800724	      1.36210714	      0.88412530	      1.18653990	     10.20872433	      1.13610917	      0.89261827	     -4.55766605	      3.80992157	      1.10124458	     15.21936636	     -5.60609326	      1.73026948	    -19.24524152	     13.72738093	      8.14393658	      1.98418496	      2.18299813	     11.34463652
      3.83000000	    -10.63159443	      2.10244531	    -33.50892259	      1.36363135	      0.88253301	      1.18803080	     10.06475903	      1.29929360	      1.31513781	     -4.33123565	      4.37529613	      0.84439391	     15.04646823	     -5.78238871	      1.33221477	    -18.85322275	     13.55778909	      7.51886328	      1.91350252	      2.11576671	     11.50743078
      3.84000000	    -10.75013116	      2.02914353	    -33.82629638	      1.36510326	      0.88065616	      1.18937133	      9.90546870	      1.50852179	      1.65340255	     -4.20027676	      5.07521715	      0.53908452	     14.82877990	     -5.98389924	      1.00499211	    -18.60518301	     13.71138648	      6.91500692	      1.77310510	      2.10230048	     11.65507714
      3.85000000	    -10.83258039	      1.88217057	    -34.09052470	      1.36655932	      0.87860248	      1.19055957	      9.67886291	      1.75385897	      1.89335184	     -4.08486443	      5.84127238	      0.19526053	     14.56924062	     -6.20038803	      0.75688816	    -18.49078426	     14.15000214	      6.33599804	      1.55622436	      2.13659154	     11.79438998
      3.86000000	    -10.86850058	      1.68100842	    -34.29174383	      1.36802503	      0.87648357	      1.19159416	      9.37371534	      2.00591780	      2.05241652	     -3.96395281	      6.62228504	     -0.18410654	     14.27017359	     -6.40660448	      0.57244310	    -18.47437727	     14.84451203	      5.79765395	      1.26677066	      2.19740310	     11.86707454
      3.87000000	    -10.85220709	      1.42567191	    -34.46097937	      1.36947943	      0.87445977	      1.19255259	      8.97058646	      2.26531841	      2.17850377	     -3.80614845	      7.38522622	     -0.51137282	     13.92822615	     -6.61591747	      0.39436108	    -18.53996098	     15.64171046	      5.39180024	      0.90092216	      2.27783852	     11.95533871
      3.88000000	    -10.77859909	      1.16319837	    -34.58557884	      1.37096926	      0.87264516	      1.19343752	      8.48867409	      2.48247362	      2.26503020	     -3.60498566	      8.08139031	     -0.83847953	     13.56179239	     -6.78240974	      0.22969410	    -18.65568112	     16.48686148	      5.05411315	      0.49112990	      2.33021258	     12.02529984
      3.89000000	    -10.67149827	      0.90885880	    -34.68046136	      1.37247714	      0.87114471	      1.19427957	      7.97489927	      2.65993038	      2.33404483	     -3.38611796	      8.67858523	     -1.11661072	     13.19944390	     -6.91760664	      0.07520281	    -18.80662235	     17.27000750	      4.81486031	      0.07182351	      2.35620590	     12.10541051
      3.90000000	    -10.55578986	      0.69282573	    -34.74933484	      1.37400619	      0.87002503	      1.19509666	      7.48443798	      2.78550539	      2.41185621	     -3.17488314	      9.14613987	     -1.33395150	     12.87150890	     -7.01465421	     -0.05139925	    -18.96560788	     17.92068596	      4.65922582	     -0.30904802	      2.34193204	     12.19838553
      3.91000000	    -10.49418051	      0.54131397	    -34.80080295	      1.37551895	      0.86925544	      1.19587622	      7.14026952	      2.87636678	      2.46284697	     -3.06013662	      9.48245303	     -1.42377765	     12.65781551	     -7.09365724	     -0.15172744	    -19.14211420	     18.42099253	      4.59423155	     -0.57489917	      2.30682885	     12.32061707
      3.92000000	    -10.45538615	      0.45517353	    -34.85505072	      1.37710392	      0.86893578	      1.19668370	      6.85965545	      2.91179882	      2.57211592	     -2.94351280	      9.64505203	     -1.46210348	     12.47110757	     -7.13324414	     -0.22695305	    -19.24206265	     18.70125185	      4.55978662	     -0.74146160	      2.23319188	     12.46357266
      3.93000000	    -10.49352181	      0.45123252	    -34.90346006	      1.37869952	      0.86895415	      1.19745963	      6.74115899	      2.90991187	      2.69591104	     -2.89344240	      9.66680669	     -1.40331066	     12.38951157	     -7.14859757	     -0.27613984	    -19.29106744	     18.78220223	      4.56433729	     -0.75273374	      2.13909719	     12.63681944
      3.94000000	    -10.59676262	      0.49242852	    -34.95132041	      1.38030451	      0.86931000	      1.19821519	      6.75338957	      2.90282430	      2.79947307	     -2.91384629	      9.53242098	     -1.30330861	     12.35806163	     -7.16375761	     -0.30927685	    -19.25268324	     18.68895255	      4.58459095	     -0.64585530	      2.05433252	     12.83293710
      3.95000000	    -10.74366326	      0.59518136	    -35.04585022	      1.38186780	      0.86991633	      1.19897133	      6.86058954	      2.86488292	      2.98205248	     -2.94884537	      9.31980271	     -1.01063299	     12.38800089	     -7.16235944	     -0.45623647	    -19.19338466	     18.47132597	      4.64878252	     -0.43416289	      1.95209862	     13.11283440
      3.96000000	    -10.91752790	      0.69696361	    -35.14754335	      1.38342797	      0.87077279	      1.19968953	      7.03796735	      2.84416997	      3.10174375	     -3.06047066	      8.99284946	     -0.55304298	     12.39228389	     -7.17627789	     -0.64250430	    -19.03073165	     18.16746144	      4.75666338	     -0.17847366	      1.88472405	     13.39561866
      3.97000000	    -11.09178030	      0.80179350	    -35.24249212	      1.38501584	      0.87181991	      1.20036964	      7.16365904	      2.81867750	      3.25991383	     -3.06113662	      8.57097628	     -0.30023404	     12.36424485	     -7.17793776	     -0.85964263	    -18.79481738	     17.73164714	      4.81856170	      0.09904021	      1.82836166	     13.67416906
      3.98000000	    -11.23796688	      0.88121781	    -35.37067058	      1.38655037	      0.87301627	      1.20101913	      7.29070983	      2.80283885	      3.38957084	     -3.12800936	      8.12244857	      0.19146590	     12.26860268	     -7.18915007	     -1.18636593	    -18.51294608	     17.30499888	      4.96171418	      0.33569207	      1.79270327	     14.00649396
      3.99000000	    -11.38595519	      0.95564296	    -35.45163096	      1.38811348	      0.87424065	      1.20157949	      7.35547921	      2.78588484	      3.53067220	     -3.07866754	      7.63077970	      0.43137570	     12.15466099	     -7.18713060	     -1.48935356	    -18.17188313	     16.80866948	      5.03818565	      0.57817434	      1.77653571	     14.25478101
      4.00000000	    -11.46484518	      0.99445556	    -35.54564177	      1.38965792	      0.87552514	      1.20211318	      7.35187340	      2.75768404	      3.63237883	     -3.05187457	      7.16336074	      0.85842806	     11.93906001	     -7.17524982	     -1.86023828	    -17.79966168	     16.35422455	      5.19973901	      0.72879718	      1.75907994	     14.55516737
      4.01000000	    -11.54260845	      1.03267875	    -35.57670615	      1.39120816	      0.87670128	      1.20251946	      7.31808608	      2.71828642	      3.71310638	     -2.96893877	      6.72863923	      1.15248039	     11.72571485	     -7.14344920	     -2.16235605	    -17.40053339	     15.90032083	      5.32025654	      0.87349813	      1.75439136	     14.76451625
      4.02000000	    -11.58284899	      1.05319309	    -35.56235852	      1.39274438	      0.87778560	      1.20286891	      7.23964007	      2.66576323	      3.76752567	     -2.88737768	      6.35256902	      1.44241670	     11.46746511	     -7.09670328	     -2.41663900	    -16.97886639	     15.48293328	      5.44722314	      0.96670423	      1.74235827	     14.92534275
      4.03000000	    -11.63810461	      1.08957901	    -35.47802437	      1.39425238	      0.87865607	      1.20311109	      7.18319111	      2.59838600	      3.80315572	     -2.80785938	      6.04688073	      1.59953206	     11.25251882	     -7.03322977	     -2.56966040	    -16.55792163	     15.09801985	      5.52329861	      1.08002198	      1.72807716	     15.00058094
      4.04000000	    -11.62921024	      1.08851366	    -35.36231590	      1.39580390	      0.87943289	      1.20333576	      7.05526810	      2.51871385	      3.77438820	     -2.75401209	      5.84313066	      1.84828147	     10.94710404	     -6.96088508	     -2.68160245	    -16.11435676	     14.80724046	      5.64165351	      1.11026185	      1.70825807	     15.08928797
      4.05000000	    -11.64990541	      1.11043825	    -35.18680599	      1.39729806	      0.87994376	      1.20349618	      6.98852521	      2.43246678	      3.73380028	     -2.74412299	      5.73417574	      2.00148620	     10.71091184	     -6.88353920	     -2.69550259	    -15.69611288	     14.56962288	      5.72405567	      1.18118195	      1.68033820	     15.11228972
      4.06000000	    -11.67725492	      1.14041567	    -34.98226434	      1.39874460	      0.88022543	      1.20361264	      6.96421761	      2.33983004	      3.68948319	     -2.79748989	      5.72088024	      2.09930136	     10.50737872	     -6.80458080	     -2.65045902	    -15.30697951	     14.39924252	      5.78826982	      1.26270649	      1.65007938	     15.10713338
      4.07000000	    -11.70332013	      1.17436499	    -34.76449099	      1.40015593	      0.88028505	      1.20371417	      6.96507283	      2.24323485	      3.62989824	     -2.89822141	      5.80923772	      2.19005622	     10.31810267	     -6.72204418	     -2.55918970	    -14.94090810	     14.32060637	      5.85103074	      1.34841726	      1.61409655	     15.12380615
